<?xml version="1.0" encoding="UTF-8"?>
<svg xmlns="http://www.w3.org/2000/svg" width="320" height="130" viewBox="0 0 320 130" fill="none">
  <g clip-path="url(#clip0_1400_1398)">
    <path d="M150.981 92.7958V64.1175H144.558V53.9534H150.981V53.2902C150.909 50.3113 151.656 47.3697 153.138 44.7852C154.551 42.4108 156.618 40.4933 159.091 39.2617C161.768 37.9258 164.728 37.2541 167.719 37.3034C171.395 37.2743 175.024 38.1267 178.302 39.789L175.816 48.9823C173.731 48.3652 171.568 48.0461 169.393 48.0345C168.715 47.9903 168.035 48.0925 167.4 48.3339C166.764 48.5754 166.188 48.9507 165.711 49.4342C164.782 50.5595 164.325 52.0005 164.434 53.4555V53.9534H174.917V64.1196H164.48V92.8084L150.981 92.7958Z" fill="#009FDB"></path>
    <path d="M179.835 43.7872C179.807 42.871 179.978 41.9595 180.337 41.116C180.696 40.2724 181.233 39.517 181.913 38.9018C183.432 37.6747 185.326 37.0054 187.279 37.0054C189.231 37.0054 191.125 37.6747 192.644 38.9018C193.327 39.5163 193.868 40.2722 194.23 41.117C194.591 41.9617 194.764 42.8751 194.736 43.7935C194.763 44.7182 194.589 45.6377 194.228 46.4894C193.867 47.3411 193.327 48.105 192.644 48.7291C191.135 49.9781 189.238 50.6616 187.279 50.6616C185.32 50.6616 183.422 49.9781 181.913 48.7291C181.233 48.1037 180.695 47.3392 180.337 46.4876C179.978 45.6359 179.807 44.7171 179.835 43.7935V43.7872ZM180.559 53.9534H194V92.7979H180.549L180.559 53.9534Z" fill="#009FDB"></path>
    <path d="M199.837 92.7958V41.653L213.313 38.0377V56.4284C215.92 54.2622 219.197 53.0647 222.586 53.039C225.74 52.9658 228.838 53.8738 231.453 55.6376C234.019 57.4323 236.012 59.9312 237.19 62.8328C238.556 66.1674 239.229 69.7453 239.167 73.3484C239.257 77.0409 238.483 80.7033 236.908 84.0439C235.54 86.9475 233.389 89.4114 230.696 91.1575C228.067 92.8245 225.01 93.6883 221.898 93.6431C219.834 93.6782 217.782 93.3328 215.843 92.6242C213.903 91.8617 212.119 90.7513 210.579 89.3478L209.043 92.7372L199.837 92.7958ZM218.667 64.1739C216.8 64.1769 214.961 64.6259 213.303 65.4837V81.4098C214.929 82.1574 216.698 82.5429 218.487 82.5396C219.489 82.5967 220.49 82.4108 221.404 81.9976C222.319 81.5845 223.12 80.9565 223.739 80.167C225.074 78.1693 225.718 75.7886 225.57 73.3902C225.72 70.9803 225.095 68.5855 223.785 66.557C223.195 65.771 222.42 65.1423 221.529 64.726C220.639 64.3097 219.66 64.1187 218.678 64.1697L218.667 64.1739Z" fill="#009FDB"></path>
    <path d="M261.803 93.6788C258.111 93.755 254.467 92.8342 251.254 91.0133C248.273 89.3083 245.84 86.7892 244.239 83.7511C242.572 80.5525 241.729 76.9885 241.787 73.382C241.72 69.6741 242.615 66.0122 244.385 62.7534C245.997 59.7758 248.397 57.2984 251.321 55.5917C254.24 53.9128 257.555 53.0459 260.922 53.081C264.222 53.016 267.473 53.8771 270.308 55.5666C272.98 57.2004 275.143 59.5474 276.553 62.3433C278.05 65.3514 278.801 68.6753 278.744 72.0346C278.744 73.6833 278.665 75.424 278.518 77.1397H254.641C255.054 78.957 256.155 80.5437 257.713 81.5668C259.606 82.612 261.755 83.105 263.914 82.9896C265.598 82.9882 267.276 82.8023 268.919 82.4351C270.788 81.9911 272.61 81.3668 274.359 80.5709L277.692 89.5174C275.266 90.8956 272.679 91.9654 269.988 92.7018C267.312 93.3795 264.56 93.71 261.799 93.6851L261.803 93.6788ZM261.148 63.0756C257.594 63.0756 255.403 65.2376 254.574 69.5616H266.615V69.1431C266.688 67.5463 266.155 65.981 265.124 64.7599C264.624 64.2064 264.009 63.7696 263.322 63.4803C262.635 63.1911 261.893 63.0565 261.148 63.0861V63.0756Z" fill="#009FDB"></path>
    <path d="M308.316 65.4168C306.949 65.0875 305.553 64.8906 304.148 64.8289C301.549 64.8001 298.978 65.3729 296.637 66.5027V92.7979H283.196V53.9534H295.022L295.823 58.0416C297.384 56.4699 299.217 55.1939 301.233 54.2756C303.147 53.4588 305.208 53.047 307.288 53.0663C308.204 53.0543 309.117 53.1526 310.008 53.3592L308.316 65.4168Z" fill="#009FDB"></path>
    <path d="M24.4804 53.9535H33.2448L47.7356 92.798H38.2934L35.8538 85.1404H21.7584L19.3188 92.798H10L24.4804 53.9535ZM24.0954 77.7527H33.4707L28.8051 62.9899L24.0954 77.7527Z" fill="black"></path>
    <path d="M52.7864 61.7241H41.2435V53.9535H73.0455V61.7241H61.4964V92.798H52.7864V61.7241Z" fill="black"></path>
    <path d="M85.8018 93.4863C82.4681 93.6443 79.1887 92.5979 76.5625 90.5383C75.4249 89.6197 74.515 88.4506 73.9038 87.1222C73.2926 85.7939 72.9967 84.3423 73.0392 82.8807C73.0353 80.6734 73.7663 78.5277 75.1168 76.7818C76.7389 74.7308 78.8048 73.0741 81.1591 71.9362C79.8459 70.5439 78.7358 68.9732 77.8618 67.2705C77.2238 65.9573 76.8919 64.5166 76.891 63.0567C76.8534 61.2247 77.3737 59.4246 78.3827 57.8952C79.4109 56.408 80.8341 55.2376 82.4919 54.5162C84.3428 53.6923 86.3517 53.2838 88.3774 53.3194C91.3439 53.1613 94.2731 54.04 96.6626 55.805C97.6637 56.5954 98.4649 57.6103 99.0013 58.7675C99.5378 59.9247 99.7945 61.1919 99.7508 62.4667C99.7508 66.2774 97.0134 69.625 91.5388 72.5095L97.3112 78.6648L98.1021 77.2296C98.3741 76.7672 98.644 76.2922 98.9034 75.8068L100.996 72.022H108.71L105.207 78.2987C104.168 80.144 103.151 81.8178 102.157 83.3201L111.099 92.8042H101.266L97.3803 88.6929C95.9513 90.258 94.2101 91.506 92.2689 92.3564C90.21 93.1523 88.0149 93.5361 85.8081 93.4863H85.8018ZM86.8061 86.9689C87.9202 86.986 89.0236 86.7501 90.0332 86.279C91.0429 85.8079 91.9325 85.1138 92.6351 84.249L85.1909 76.2064C84.0131 76.9492 82.986 77.9074 82.1634 79.031C81.5658 79.9188 81.2474 80.9652 81.2491 82.0354C81.2268 82.7061 81.3542 83.3732 81.622 83.9885C81.8898 84.6037 82.2913 85.1516 82.7974 85.5922C83.9187 86.5316 85.3461 87.026 86.8082 86.9815L86.8061 86.9689ZM84.4691 62.7743C84.4623 63.644 84.6931 64.499 85.1365 65.2473C85.845 66.3785 86.662 67.438 87.576 68.4108C88.8688 67.659 90.0381 66.7127 91.0429 65.6051C91.7384 64.8563 92.1396 63.8814 92.1727 62.86C92.1845 62.3975 92.1015 61.9374 91.9288 61.5081C91.7561 61.0788 91.4973 60.6895 91.1684 60.364C90.8177 60.0244 90.4013 59.7602 89.9447 59.5875C89.4881 59.4148 89.001 59.3373 88.5134 59.3597C87.4627 59.3152 86.4328 59.661 85.6219 60.3305C85.2618 60.6279 84.9717 61.0012 84.7725 61.4236C84.5732 61.846 84.4696 62.3072 84.4691 62.7743Z" fill="black"></path>
    <path d="M115.597 61.7241H104.055V53.9535H135.857V61.7241H124.307V92.798H115.597V61.7241Z" fill="black"></path>
  </g>
  <defs>
    <clipPath id="clip0_1400_1398">
      <rect width="300" height="56.6809" fill="white" transform="translate(10 37)"></rect>
    </clipPath>
  </defs>
</svg>
